<?xml version="1.0" encoding="utf-8"?>
<!-- Generator: Adobe Illustrator 23.0.6, SVG Export Plug-In . SVG Version: 6.00 Build 0)  -->
<svg version="1.1" id="Layer_1" xmlns="http://www.w3.org/2000/svg" xmlns:xlink="http://www.w3.org/1999/xlink" x="0px" y="0px"
	 viewBox="0 0 1000 1000" style="enable-background:new 0 0 1000 1000;" xml:space="preserve">
<style type="text/css">
	.st0{fill:#62B134;}
	.st1{fill:#E4B634;}
	.st2{fill:#C41B2D;}
	.st3{fill:#4B9E37;}
	.st4{fill:#3E7E45;}
	.st5{fill:#FBC10D;}
	.st6{fill:#E7412E;}
	.st7{fill:#F49C2C;}
	.st8{fill:#1595D3;}
	.st9{fill:#A21A43;}
	.st10{fill:#2CBADF;}
	.st11{fill:#EC692F;}
	.st12{fill:#E5233B;}
	.st13{fill:#DC1668;}
	.st14{fill:#18486A;}
	.st15{fill:#C7982C;}
	.st16{fill:#00689D;}
</style>
<g id="XMLID_193_">
	<path id="XMLID_107_" class="st0" d="M263.82,361.54c12.09-20.54,26.75-39.36,43.56-56.03L164.56,148.91
		c-35.93,34.34-66.57,74.15-90.67,118.02L263.82,361.54z"/>
	<path id="XMLID_106_" class="st1" d="M613.94,250.91c21.62,9.91,41.74,22.55,59.89,37.52l143.22-156.37
		c-37.72-32.53-80.5-59.37-126.93-79.19L613.94,250.91z"/>
	<path id="XMLID_105_" class="st2" d="M941.94,298l-189.83,94.62c9.07,21.16,15.51,43.63,19,67.07l211.16-19.93
		C976.05,389.77,962.21,342.1,941.94,298"/>
	<path id="XMLID_104_" class="st3" d="M738.49,365.19l189.8-94.61c-23.51-43.69-53.5-83.38-88.69-117.76L696.37,309.15
		C712.69,325.91,726.87,344.73,738.49,365.19"/>
	<path id="XMLID_103_" class="st4" d="M226.1,500.08c0-4.27,0.14-8.54,0.33-12.78L15.22,468.39c-0.66,10.47-1.06,21.04-1.06,31.69
		c0,40.51,5.03,79.87,14.38,117.48l203.99-58.52C228.35,540.04,226.1,520.33,226.1,500.08"/>
	<path id="XMLID_102_" class="st5" d="M711.91,673.68c-15.01,18.27-32.34,34.56-51.51,48.45l111.52,180.55
		c41.39-28.04,78.24-62.29,109.21-101.41L711.91,673.68z"/>
	<path id="XMLID_101_" class="st6" d="M774.07,500.08c0,20-2.15,39.5-6.28,58.28l203.96,58.6c9.3-37.45,14.26-76.6,14.26-116.88
		c0-10-0.33-19.93-0.94-29.82L773.88,490.2C773.99,493.51,774.07,496.78,774.07,500.08"/>
	<path id="XMLID_100_" class="st7" d="M291.68,677.72l-168.81,128.3c31.4,38.66,68.58,72.36,110.25,99.87l111.5-180.36
		C324.97,711.95,307.17,695.85,291.68,677.72"/>
	<path id="XMLID_99_" class="st8" d="M229.53,456.83c3.78-23.86,10.69-46.67,20.23-68.04L60.01,294.25
		c-20.97,44.62-35.34,92.92-41.88,143.62L229.53,456.83z"/>
	<path id="XMLID_98_" class="st9" d="M745.98,919.02L634.62,738.71c-20.23,11.42-42.02,20.39-64.99,26.41l39.3,208.58
		C657.83,962.46,703.93,943.82,745.98,919.02"/>
	<path id="XMLID_97_" class="st10" d="M759.66,587.9c-7.39,21.69-17.37,42.16-29.65,61.05l169.35,127.74
		c27.51-39.55,49.25-83.34,64.09-130.22L759.66,587.9z"/>
	<path id="XMLID_96_" class="st11" d="M539.6,771.2c-12.89,1.86-26.08,2.88-39.52,2.88c-10.79,0-21.44-0.67-31.89-1.89
		l-39.28,208.59c23.25,3.41,47,5.22,71.17,5.22c26.82,0,53.14-2.2,78.78-6.4L539.6,771.2z"/>
	<path id="XMLID_95_" class="st12" d="M517.6,226.64c23.53,1.51,46.26,5.99,67.8,13.09l76.18-197.98
		c-45.32-16-93.67-25.48-143.98-27.25V226.64z"/>
	<path id="XMLID_94_" class="st13" d="M438,766.98c-23.75-5.54-46.32-14.17-67.26-25.44L259.18,921.99
		c42.92,24.57,89.85,42.76,139.58,53.35L438,766.98z"/>
	<path id="XMLID_93_" class="st14" d="M417.75,238.76c22-6.96,45.21-11.19,69.22-12.32V14.33c-50.99,1.36-99.98,10.65-145.92,26.58
		L417.75,238.76z"/>
	<path id="XMLID_92_" class="st15" d="M273.1,653.34c-13.46-19.88-24.44-41.64-32.32-64.79l-203.84,58.5
		c15.44,48.62,38.32,93.92,67.33,134.59L273.1,653.34z"/>
	<path id="XMLID_91_" class="st16" d="M330.33,285.18c17.91-14.19,37.63-26.14,58.76-35.55L312.43,51.88
		c-45.65,19.17-87.72,45.12-125.02,76.57L330.33,285.18z"/>
</g>
</svg>
