<?xml version="1.0" encoding="utf-8"?>
<!-- Generator: Adobe Illustrator 23.0.6, SVG Export Plug-In . SVG Version: 6.00 Build 0)  -->
<svg version="1.1" id="Layer_1" xmlns="http://www.w3.org/2000/svg" xmlns:xlink="http://www.w3.org/1999/xlink" x="0px" y="0px"
	 viewBox="0 0 1000 1000" style="enable-background:new 0 0 1000 1000;" xml:space="preserve">
<style type="text/css">
	.st0{fill:#62B134;}
	.st1{fill:#E4B634;}
	.st2{fill:#C41B2D;}
	.st3{fill:#4B9E37;}
	.st4{fill:#3E7E45;}
	.st5{fill:#FBC10D;}
	.st6{fill:#E7412E;}
	.st7{fill:#F49C2C;}
	.st8{fill:#1595D3;}
	.st9{fill:#A21A43;}
	.st10{fill:#2CBADF;}
	.st11{fill:#EC692F;}
	.st12{fill:#E5233B;}
	.st13{fill:#DC1668;}
	.st14{fill:#18486A;}
	.st15{fill:#C7982C;}
	.st16{fill:#00689D;}
</style>
<path class="st0" d="M179.78,165.6c-33.89,32.45-62.84,70-85.64,111.42l-20.25-10.09c24.1-43.88,54.74-83.68,90.67-118.02
	L179.78,165.6z"/>
<path class="st1" d="M817.05,132.06l-15.33,16.74c-35.62-30.63-75.96-55.94-119.78-74.68l8.18-21.25
	C736.56,72.69,779.33,99.53,817.05,132.06z"/>
<path class="st2" d="M982.28,439.76l-22.89,2.16c-5.9-47.15-18.89-92.1-37.88-133.74L941.94,298
	C962.21,342.1,976.05,389.77,982.28,439.76z"/>
<path class="st3" d="M928.29,270.58l-20.4,10.17c-22.2-41.23-50.47-78.7-83.61-111.21l15.32-16.72
	C874.79,187.2,904.78,226.89,928.29,270.58z"/>
<path class="st4" d="M50.46,611.27l-21.92,6.29c-9.35-37.61-14.38-76.97-14.38-117.48c0-10.65,0.4-21.21,1.06-31.69l22.71,2.03
	C37.31,480.2,37,490.07,37,500C37,538.36,41.66,575.63,50.46,611.27z"/>
<path class="st5" d="M881.12,801.28c-30.97,39.12-67.82,73.37-109.2,101.41l-12.02-19.46c39.01-26.51,73.76-58.82,103-95.69
	L881.12,801.28z"/>
<path class="st6" d="M986.01,500.08c0,40.28-4.96,79.44-14.26,116.88l-22.05-6.34C958.39,575.18,963,538.13,963,500
	c0-9.26-0.27-18.45-0.82-27.58l22.89-2.16C985.68,480.15,986.01,490.08,986.01,500.08z"/>
<path class="st7" d="M245.07,886.55l-11.96,19.34c-41.66-27.52-78.84-61.21-110.24-99.87l18.05-13.72
	C170.61,828.74,205.74,860.57,245.07,886.55z"/>
<path class="st8" d="M80.26,304.34c-19.68,42.12-33.19,87.7-39.39,135.57l-22.74-2.04c6.54-50.7,20.91-99,41.88-143.62L80.26,304.34
	z"/>
<path class="st9" d="M745.98,919.02c-42.05,24.8-88.15,43.44-137.05,54.68l-4.26-22.59c46.13-10.65,89.62-28.2,129.32-51.51
	L745.98,919.02z"/>
<path class="st10" d="M963.46,646.46c-14.84,46.88-36.58,90.67-64.09,130.22l-18.22-13.75c25.8-37.33,46.26-78.63,60.26-122.81
	L963.46,646.46z"/>
<path class="st11" d="M578.86,979.6c-25.64,4.2-51.96,6.4-78.78,6.4c-24.17,0-47.92-1.81-71.17-5.22l4.25-22.57
	C454.98,961.37,477.3,963,500,963c25.4,0,50.31-2.05,74.6-5.99h0.01L578.86,979.6z"/>
<path class="st12" d="M661.58,41.75l-8.18,21.27c-42.74-15.01-88.36-23.92-135.8-25.69V14.5C567.91,16.27,616.26,25.75,661.58,41.75
	z"/>
<path class="st13" d="M403,952.81l-4.24,22.53c-49.74-10.6-96.67-28.79-139.58-53.35l11.99-19.4
	C311.68,925.67,356.02,942.81,403,952.81z"/>
<path class="st14" d="M486.96,14.33v22.85c-48.1,1.33-94.36,9.99-137.7,24.92l-8.21-21.18C386.98,24.98,435.97,15.69,486.96,14.33z"
	/>
<path class="st15" d="M122.34,767.91l-18.07,13.74c-29.02-40.68-51.89-85.98-67.33-134.6l21.86-6.27
	C73.42,686.68,95.02,729.47,122.34,767.91z"/>
<path class="st16" d="M320.63,73.03c-43.04,18.1-82.76,42.51-118.01,72.1l-15.21-16.68c37.3-31.44,79.37-57.4,125.02-76.57
	L320.63,73.03z"/>
</svg>
