<?xml version="1.0" encoding="utf-8"?>
<!-- Generator: Adobe Illustrator 23.0.6, SVG Export Plug-In . SVG Version: 6.00 Build 0)  -->
<svg version="1.1" id="Layer_1" xmlns="http://www.w3.org/2000/svg" xmlns:xlink="http://www.w3.org/1999/xlink" x="0px" y="0px"
	 viewBox="0 0 1000 1000" style="enable-background:new 0 0 1000 1000;" xml:space="preserve">
<style type="text/css">
	.st0{fill:#62B134;}
	.st1{fill:#E4B634;}
	.st2{fill:#C41B2D;}
	.st3{fill:#4B9E37;}
	.st4{fill:#3E7E45;}
	.st5{fill:#FBC10D;}
	.st6{fill:#E7412E;}
	.st7{fill:#F49C2C;}
	.st8{fill:#1595D3;}
	.st9{fill:#A21A43;}
	.st10{fill:#2CBADF;}
	.st11{fill:#EC692F;}
	.st12{fill:#E5233B;}
	.st13{fill:#DC1668;}
	.st14{fill:#18486A;}
	.st15{fill:#C7982C;}
	.st16{fill:#00689D;}
</style>
<path class="st0" d="M200.68,188.52c-31.08,29.85-57.71,64.34-78.76,102.33l-48.03-23.92c24.1-43.88,54.74-83.68,90.67-118.02
	L200.68,188.52z"/>
<path class="st1" d="M817.05,132.06l-36.28,39.62c-32.77-28.06-69.79-51.29-109.97-68.59l19.32-50.22
	C736.56,72.69,779.33,99.53,817.05,132.06z"/>
<path class="st2" d="M982.28,439.76l-53.77,5.07c-5.51-43.26-17.43-84.53-34.76-122.81L941.94,298
	C962.21,342.1,976.05,389.77,982.28,439.76z"/>
<path class="st3" d="M928.29,270.58l-48.16,24.01c-20.47-37.82-46.43-72.24-76.81-102.18l36.28-39.59
	C874.79,187.2,904.78,226.89,928.29,270.58z"/>
<path class="st4" d="M80.29,602.72l-51.75,14.84c-9.35-37.61-14.38-76.97-14.38-117.48c0-10.65,0.4-21.21,1.06-31.69l53.61,4.8
	C68.28,482.06,68,491,68,500C68,535.4,72.26,569.8,80.29,602.72z"/>
<path class="st5" d="M881.12,801.28c-30.97,39.12-67.82,73.37-109.2,101.41l-28.33-45.87c35.75-24.45,67.64-54.13,94.55-87.95
	L881.12,801.28z"/>
<path class="st6" d="M986.01,500.08c0,40.28-4.96,79.44-14.26,116.88l-51.88-14.9v-0.01C927.8,569.33,932,535.16,932,500
	c0-8.28-0.23-16.5-0.7-24.66l53.77-5.08C985.68,480.15,986.01,490.08,986.01,500.08z"/>
<path class="st7" d="M261.38,860.17l-28.27,45.72c-41.66-27.52-78.84-61.21-110.24-99.87l42.75-32.49
	C192.98,806.96,225.28,836.21,261.38,860.17z"/>
<path class="st8" d="M108.02,318.17c-18,38.73-30.43,80.58-36.24,124.51l-53.65-4.81c6.54-50.7,20.91-99,41.88-143.62L108.02,318.17
	z"/>
<path class="st9" d="M745.98,919.02c-42.05,24.8-88.15,43.44-137.05,54.68l-10-53.08c42.32-9.91,82.25-26.05,118.76-47.4
	L745.98,919.02z"/>
<path class="st10" d="M963.46,646.46c-14.84,46.88-36.58,90.67-64.09,130.22l-43-32.43c23.57-34.31,42.31-72.2,55.23-112.69
	L963.46,646.46z"/>
<path class="st11" d="M578.86,979.6c-25.64,4.2-51.96,6.4-78.78,6.4c-24.17,0-47.92-1.81-71.17-5.22l9.99-53.07
	c19.96,2.83,40.36,4.29,61.1,4.29c23.44,0,46.44-1.87,68.86-5.47L578.86,979.6z"/>
<path class="st12" d="M661.58,41.75l-19.33,50.23C602.98,78.27,561.12,70.1,517.6,68.36V14.5
	C567.91,16.27,616.26,25.75,661.58,41.75z"/>
<path class="st13" d="M408.74,922.34l-9.98,53c-49.74-10.6-96.67-28.79-139.58-53.35l28.31-45.79
	C324.8,897.33,365.57,913.06,408.74,922.34z"/>
<path class="st14" d="M486.96,14.33V68.2c-44.15,1.3-86.63,9.23-126.48,22.83l-19.43-50.11C386.98,24.98,435.97,15.69,486.96,14.33z
	"/>
<path class="st15" d="M147.04,749.14l-42.77,32.51c-29.02-40.68-51.89-85.98-67.33-134.6l51.67-14.83
	C102.15,674.39,121.99,713.73,147.04,749.14z"/>
<path class="st16" d="M331.84,101.95c-39.44,16.68-75.89,39.05-108.31,66.11l-36.12-39.61c37.3-31.44,79.37-57.4,125.02-76.57
	L331.84,101.95z"/>
</svg>
