<?xml version="1.0" encoding="utf-8"?>
<!-- Generator: Adobe Illustrator 24.0.1, SVG Export Plug-In . SVG Version: 6.00 Build 0)  -->
<svg version="1.1" id="Layer_1" xmlns="http://www.w3.org/2000/svg" xmlns:xlink="http://www.w3.org/1999/xlink" x="0px" y="0px"
	 viewBox="0 0 1000 1000" style="enable-background:new 0 0 1000 1000;" xml:space="preserve">
<style type="text/css">
	.st0{fill:#62B134;}
	.st1{fill:#E4B634;}
	.st2{fill:#C41B2D;}
	.st3{fill:#4B9E37;}
	.st4{fill:#3E7E45;}
	.st5{fill:#FBC10D;}
	.st6{fill:#E7412E;}
	.st7{fill:#F49C2C;}
	.st8{fill:#1595D3;}
	.st9{fill:#A21A43;}
	.st10{fill:#2CBADF;}
	.st11{fill:#EC692F;}
	.st12{fill:#E5233B;}
	.st13{fill:#DC1668;}
	.st14{fill:#18486A;}
	.st15{fill:#C7982C;}
	.st16{fill:#00689D;}
</style>
<g id="SDG_Wheel">
	<path class="st0" d="M172.8,158c-34.9,33.4-64.7,72-88.1,114.6l-10.4-5.2c24.1-43.9,54.7-83.7,90.7-118L172.8,158z"/>
	<path class="st1" d="M817.5,132.6l-7.8,8.5c-36.6-31.5-78.2-57.6-123.3-76.8l4.2-10.9C737,73.2,779.8,100,817.5,132.6z"/>
	<path class="st2" d="M982.7,440.3l-11.7,1.1c-6.1-48.6-19.5-94.8-39.1-137.7l10.4-5.2C962.7,342.6,976.5,390.3,982.7,440.3z"/>
	<path class="st3" d="M928.7,271.1l-10.4,5.2c-22.8-42.4-52-81-86.1-114.4l7.8-8.5C875.2,187.7,905.2,227.4,928.7,271.1z"/>
	<path class="st4" d="M40.2,614.8L29,618.1c-9.3-37.6-14.4-77-14.4-117.5c0-10.7,0.4-21.2,1.1-31.7l11.7,1c-0.7,10.2-1,20.4-1,30.7
		C26.3,540,31.2,578.3,40.2,614.8z"/>
	<path class="st5" d="M881.6,801.8c-31,39.1-67.8,73.4-109.2,101.4l-6-9.8c40.2-27.3,76-60.5,106.1-98.5L881.6,801.8z"/>
	<path class="st6" d="M986.5,500.6c0,40.3-5,79.4-14.3,116.9l-11.2-3.2v0c8.9-36.4,13.7-74.4,13.7-113.6c0-9.7-0.3-19.3-0.9-28.8
		l11.7-1.1C986.1,480.7,986.5,490.6,986.5,500.6z"/>
	<path class="st7" d="M239.6,896.6l-6,9.8c-41.7-27.5-78.8-61.2-110.2-99.9l9.1-6.9C162.9,837.1,199.1,869.9,239.6,896.6z"/>
	<path class="st8" d="M70.8,299.9c-20.3,43.3-34.2,90.2-40.5,139.5l-11.7-1c6.5-50.7,20.9-99,41.9-143.6L70.8,299.9z"/>
	<path class="st9" d="M746.4,919.5c-42,24.8-88.1,43.4-137,54.7l-2.2-11.4c47.5-10.9,92.3-29,133.2-53L746.4,919.5z"/>
	<path class="st10" d="M963.9,647c-14.8,46.9-36.6,90.7-64.1,130.2l-9.2-6.9c26.6-38.4,47.7-81,62.1-126.5L963.9,647z"/>
	<path class="st11" d="M579.3,980.1c-25.6,4.2-52,6.4-78.8,6.4c-24.2,0-47.9-1.8-71.2-5.2l2.2-11.4c22.5,3.3,45.6,5,69,5
		c26.1,0,51.7-2.1,76.6-6.2L579.3,980.1z"/>
	<path class="st12" d="M662,42.2l-4.2,11c-44-15.5-90.9-24.6-139.8-26.4V15C568.3,16.8,616.7,26.2,662,42.2z"/>
	<path class="st13" d="M401.3,964.4l-2.1,11.4c-49.7-10.6-96.7-28.8-139.6-53.4l6.1-9.8C307.3,936.5,353,954.2,401.3,964.4z"/>
	<path class="st14" d="M487.4,14.8v11.8c-49.5,1.3-97.1,10.3-141.7,25.7l-4.2-10.9C387.4,25.5,436.4,16.2,487.4,14.8z"/>
	<path class="st15" d="M113.9,775.2l-9.1,7c-29-40.7-51.9-86-67.3-134.6l11.1-3.2C63.5,691.6,85.7,735.7,113.9,775.2z"/>
	<path class="st16" d="M317.1,63.3c-44.3,18.6-85.2,43.7-121.5,74.2l-7.8-8.5c37.3-31.4,79.4-57.4,125-76.6L317.1,63.3z"/>
</g>
</svg>
