<?xml version="1.0" encoding="utf-8"?>
<!-- Generator: Adobe Illustrator 24.0.1, SVG Export Plug-In . SVG Version: 6.00 Build 0)  -->
<svg version="1.1" id="Layer_1" xmlns="http://www.w3.org/2000/svg" xmlns:xlink="http://www.w3.org/1999/xlink" x="0px" y="0px"
	 viewBox="0 0 204.3 204.3" style="enable-background:new 0 0 204.3 204.3;" xml:space="preserve">
<style type="text/css">
	.st0{opacity:0.1;fill:#818181;enable-background:new    ;}
</style>
<g>
	<path class="st0" d="M131.7,89.9c-1.1,7.7-4.5,15.2-10.3,20.6c-5.5,5-12.7,7.4-20,7.3c0-0.3,0-0.7,0-1.1c0-1-0.1-2-0.2-3
		c-0.1-0.7-0.3-1.3-0.4-2c0.9-1.5,2.1-2.9,3.5-4.2c2.9-2.6,6.3-4.5,9.3-6.8c-3.4,2-7.1,3.7-10.3,6c-1.2,0.8-2.3,1.7-3.3,2.7
		c-0.6-1.4-1.4-2.7-2.4-3.9c-0.3-0.3-0.5-0.6-0.8-0.9c0.3-0.8,0.7-1.6,1.1-2.4c2.1-4.1,6-7.2,9.9-9.5c4.4-2.5,9.1-4.3,13.6-6.4
		c4.1-1.9,8.3-4.7,8.7-9.6C132,80.7,132.4,85.7,131.7,89.9L131.7,89.9z"/>
	<path class="st0" d="M100.7,129.2c-2.8-5.9-10.1-5.7-21.5-11.2c-11.4-5.6-8.1-27.7-8.2-27c-0.2,1.8,7.9,6.6,18.1,10.2
		c3.5,1.2,5.9,3,7.6,5c1.2,1.3,2,2.8,2.5,4.2c0.5,1.2,0.8,2.4,0.9,3.5c0.2,1,0.2,2,0.2,2.8c0,2.1-0.3,3.6-0.3,3.6
		c-1-1.4-2.1-2.6-3.1-3.7c-3.8-3.9-7.3-5.7-9.1-6.3c-0.5-0.2-0.9-0.3-1.1-0.3c-0.1,0-0.2,0-0.1,0c0.4,0.3,0.9,0.5,1.3,0.8
		c2.9,1.9,5.2,3.8,7,5.7c0.7,0.7,1.2,1.4,1.8,2.1C101.3,124.6,100.9,129.6,100.7,129.2L100.7,129.2z"/>
</g>
</svg>
